<!DOCTYPE svg PUBLIC "-//W3C//DTD SVG 1.1//EN" "http://www.w3.org/Graphics/SVG/1.1/DTD/svg11.dtd">
<!-- Uploaded to: SVG Find, www.svgfind.com, Transformed by: SVG Find Mixer Tools -->
<svg fill="#00ff66" width="800px" height="800px" version="1.1" viewBox="144 144 512 512" xmlns="http://www.w3.org/2000/svg">
<g id="SVGRepo_bgCarrier" stroke-width="0"/>
<g id="SVGRepo_tracerCarrier" stroke-linecap="round" stroke-linejoin="round"/>
<g id="SVGRepo_iconCarrier"> <path d="m614.05 210.91c-0.57031-6.7383-4.5391-12.523-10.609-15.473-5.9414-2.8906-8.2422-3.5391-9.5938-3.7852-4.2812-0.76953-8.6836-0.9375-13.035-0.51172l-57.891 5.7148c-2.6055 0.25391-4.9961 1.6094-6.5547 3.7109-1.5586 2.1016-2.1602 4.7812-1.6523 7.3477l0.44141 2.2266c0.25781 1.2969-0.26562 2.2539-0.60547 2.707-0.33594 0.45703-1.0938 1.2383-2.4023 1.375-20.781 2.1797-90.91 9.5195-120.88 12.391-10.023 0.96484-19.312 4.9844-26.871 11.633l-78.543 69.047c-5.0938 4.4766-7.7148 10.922-7.1992 17.68 0.51953 6.7578 4.0898 12.727 9.8008 16.375l32.262 20.613c4.457 2.8477 5.9844 8.5352 3.5508 13.23-13.414 25.859-43.621 84.133-49.984 96.48-9.2188 17.91-6.5273 32.027-5.2344 38.816l0.11719 0.61719c1.2539 6.5039 2.2422 11.637-9.4805 19.242-10.848 7.0352-46.168 31.906-66.254 46.102-4.4102 3.1172-7.1484 7.9961-7.5156 13.383-0.36719 5.3906 1.6875 10.594 5.6406 14.277 3.4414 3.207 7.918 4.9688 12.605 4.9688 5.6602 0 10.934-2.5352 14.469-6.9609 12.719-15.926 34.695-35.812 45.559-44.605 14.035-11.355 55.488-26.504 67.371-28.898 2.9688-0.60156 6.043-1.7695 9.1328-3.4805 5.3359-2.957 8.75-8.3672 9.1211-14.473 0.375-6.1445-2.3711-11.973-7.3516-15.586-6.7578-4.8984-14.785-10.738-20.5-14.926-7.5977-5.5664-6.7383-10.781-0.29688-23.625 3.7812-7.543 14.652-27.785 20.797-39.184 4.0781-7.5625 7.4336-15.559 9.9766-23.766l16.051-51.805c1.1172-3.6055 0.52734-7.4531-1.6133-10.559-2.1328-3.0977-5.5039-5.0117-9.2461-5.25-3.6836-0.23828-7.5078-0.60547-11.367-1.1016-2.5664-0.32812-4.5625-2.3516-4.8555-4.9258-0.30469-2.6641 0.49219-5.2461 2.2383-7.2734 1.7461-2.0312 4.1836-3.2031 6.8594-3.3008 13.059-0.47266 30.43-1.1133 36.777-1.4336l0.77344-0.019532c4.2773 0 8.1953 1.7578 9.9844 4.4727 1.6641 2.5352 1.5977 5.9219-0.19531 10.066-4.1406 9.5781-14.496 26.934-20.297 36.426-1.8789 3.0703-1.9492 6.7773-0.19141 9.9102 2.0977 3.7422 6.4961 5.7305 10.676 4.7695 20.805-4.7344 43.598-20.508 44.609-21.215l133.28-95.52 3.4883 4.8477-35.91 25.828-9.5898 6.8984 16.52-1.3047 0.98828-4.9414 35.18-25.305-6.4883-9.0234 36.066-25.848c5.5078-3.9414 8.4453-10.316 7.875-17.059zm-13.871 8.6797-173.48 124.33c-0.21484 0.14844-21.215 14.688-39.727 19.301 7.1719-11.77 16.285-27.309 20.336-36.684 3.1641-7.3242 2.9336-14.359-0.65234-19.82-3.9062-5.9375-11.688-9.5078-19.887-9.0898-6.3242 0.3125-23.625 0.95703-36.637 1.4258-5.5 0.20312-10.711 2.707-14.301 6.8789-3.5898 4.168-5.2891 9.6992-4.668 15.164 0.82813 7.3047 6.5 13.059 13.789 13.984 4.0703 0.51953 8.1133 0.91406 12.012 1.1641 0.78516 0.050781 1.2266 0.52734 1.4219 0.80859 0.19922 0.28906 0.49609 0.88672 0.25781 1.6641l-16.051 51.805c-2.3438 7.5703-5.4414 14.945-9.207 21.922-6.1719 11.445-17.098 31.793-20.938 39.453-4.9727 9.918-12.484 24.906 3.418 36.562 5.7305 4.1992 13.773 10.047 20.543 14.957 2.1445 1.5586 3.2773 3.9688 3.1172 6.6172-0.16016 2.6094-1.5547 4.8281-3.8242 6.0859-2.168 1.1992-4.2461 2.0039-6.1797 2.3945-11.477 2.3125-55.312 17.637-71.82 30.992-11.199 9.0625-33.902 29.617-47.129 46.184-2.8633 3.582-8.625 4.0195-11.992 0.88281-1.6719-1.5586-2.543-3.7578-2.3867-6.0391s1.3125-4.3438 3.1797-5.6641c16.121-11.395 54.82-38.676 65.914-45.875 17.551-11.383 15.406-22.488 13.992-29.836l-0.11328-0.59766c-1.2422-6.5117-3.3203-17.414 4.2734-32.164 6.3555-12.344 36.562-70.598 49.969-96.453 4.9062-9.4609 1.8281-20.922-7.1484-26.66l-32.262-20.613c-2.957-1.8906-4.8047-4.9766-5.0742-8.4766-0.26562-3.4961 1.0938-6.8359 3.7266-9.1523l78.547-69.047c5.9219-5.207 13.199-8.3555 21.051-9.1094 30.012-2.8789 100.18-10.219 120.97-12.402 3.8281-0.40234 7.3398-2.4102 9.6211-5.5078 2.2891-3.1016 3.168-7.0508 2.418-10.832l-0.22656-1.1328 56.781-5.6055c3.4023-0.33594 6.8633-0.20312 10.203 0.39844 0.15234 0.023437 1.6328 0.33984 6.9023 2.9062 2.7773 1.3477 4.5898 3.9961 4.8516 7.0742 0.26953 3.082-1.0781 6-3.5938 7.8047z"/> </g>
</svg>